<?xml version="1.0" encoding="utf-8"?>
<!-- Generator: Adobe Illustrator 27.7.0, SVG Export Plug-In . SVG Version: 6.00 Build 0)  -->
<svg version="1.1" id="Layer_1" xmlns="http://www.w3.org/2000/svg" xmlns:xlink="http://www.w3.org/1999/xlink" x="0px" y="0px"
	 viewBox="0 0 1920 1080" style="enable-background:new 0 0 1920 1080;" xml:space="preserve">
<style type="text/css">
	.st0{fill:#030202;}
	.st1{fill:#020202;}
	.st2{fill:#010101;}
	.st3{fill:#7F7F7F;}
	.st4{fill:#ED1C24;}
	.st5{fill:#6D6E71;}
	.st6{fill:#6B6C6F;}
	.st7{fill:#6C6D70;}
	.st8{fill:#030303;}
</style>
<g>
	<path class="st0" d="M1107.25,782.03c-26.2-25.35-51.74-50.07-77.52-75c-7.45,7.17-14.81,14.23-22.14,21.32
		c-25.3,24.5-50.53,49.06-75.99,73.4c-2.11,2.01-5.71,3.48-8.62,3.48c-92.07,0.18-184.14,0.15-276.22,0.14
		c-5.07,0-8.26-1.97-9.85-5.95c-1.76-4.4-0.24-7.79,3.01-10.94c28.72-27.79,57.38-55.64,86.06-83.47
		c23.3-22.62,46.59-45.25,69.9-67.86c26.44-25.65,52.89-51.3,79.33-76.95c0.36-0.35,0.67-0.73,0.54-0.58
		c-5.77-6.12-11.28-12.39-17.23-18.2c-19.66-19.19-39.47-38.22-59.23-57.32c-33.49-32.37-66.99-64.74-100.47-97.13
		c-19.39-18.75-38.75-37.53-58.13-56.3c-4.84-4.69-9.62-9.46-14.55-14.06c-3.16-2.94-4.33-6.52-3.14-10.48
		c1.2-4.02,5.02-6.14,9.73-6.14c92.7-0.01,185.39,0,278.09-0.01c3.61,0,6.56,1.16,9.24,3.78c35.7,34.77,71.48,69.45,107.21,104.2
		c1.63,1.58,2.78,2.06,4.64,0.25c31.67-30.84,63.39-61.64,95.1-92.45c0.35-0.34,0.63-0.74,1.06-1.25
		c-10.54-10.22-21.01-20.4-31.51-30.55c-23.43-22.66-46.87-45.31-70.3-67.96c-33.58-32.46-67.17-64.91-100.74-97.39
		C898.33,92.31,871.15,65.98,844,39.62c-4.83-4.69-5.22-8.87-1.57-13.38c2.05-2.54,4.77-3.42,7.94-3.39
		c6,0.05,11.99,0.01,17.99,0.01c86.2,0,172.4,0.02,258.6-0.06c4.52,0,8.03,1.16,11.35,4.42c25.89,25.32,51.94,50.49,77.94,75.69
		c36.58,35.47,73.17,70.92,109.74,106.4c23.22,22.52,46.39,45.09,69.61,67.61c34.78,33.74,69.58,67.45,104.36,101.2
		c23.75,23.05,47.45,46.15,71.2,69.2c25.9,25.13,51.8,50.27,77.81,75.3c4.4,4.24,7.93,8.38,5.01,14.94
		c-0.23,0.53,0.09,1.38,0.32,2.02c1.55,4.31,0.81,7.97-2.57,11.23c-26.06,25.15-52.07,50.34-78.09,75.53
		c-19.83,19.19-39.65,38.4-59.49,57.59c-33.22,32.12-66.46,64.21-99.67,96.33c-19.48,18.84-38.92,37.73-58.4,56.57
		c-33.39,32.3-66.81,64.57-100.2,96.87c-27.11,26.22-54.19,52.48-81.28,78.71c-13.1,12.68-26.1,25.47-39.43,37.9
		c-2.01,1.87-5.57,2.94-8.41,2.95c-74.33,0.16-148.66,0.12-223,0.12c-17.74,0-35.48,0.13-53.22-0.14c-2.69-0.04-5.97-1.35-7.89-3.2
		c-4.04-3.9-3.48-8.65,0.96-13.01c10.96-10.77,22-21.45,33.03-32.15c17.74-17.21,35.5-34.42,53.25-51.62
		c34.43-33.38,68.88-66.74,103.3-100.14c23.75-23.05,47.47-46.13,71.22-69.18C1105.1,783.26,1106.05,782.82,1107.25,782.03z
		 M1647.85,542.55c-2.14-0.2-3.31-0.4-4.47-0.4c-91.81-0.01-183.63-0.02-275.44,0.07c-1.63,0-3.65,0.86-4.84,1.99
		c-10.87,10.32-21.6,20.78-32.35,31.21c-40.35,39.12-80.7,78.24-121.05,117.36c-24.57,23.82-49.13,47.65-73.68,71.48
		c-33.34,32.36-66.68,64.72-100.03,97.07c-24.65,23.92-49.3,47.82-73.95,71.74c-37.19,36.1-74.38,72.21-111.54,108.35
		c-0.88,0.86-1.31,2.17-1.96,3.27c1.15,0.26,2.31,0.76,3.46,0.76c91.31,0.04,182.63,0.04,273.94-0.05c1.65,0,3.7-0.77,4.88-1.9
		c27.82-26.74,55.56-53.56,83.3-80.4c19.57-18.93,39.08-37.92,58.65-56.85c33.48-32.39,67-64.74,100.49-97.12
		c19.48-18.84,38.92-37.72,58.4-56.56c33.13-32.03,66.28-64.04,99.4-96.08c13.92-13.46,27.76-26.99,41.68-40.45
		c23.97-23.18,47.97-46.32,71.94-69.5C1645.67,545.6,1646.42,544.39,1647.85,542.55z M847.32,31.41c2.26,2.36,3.71,3.99,5.27,5.5
		c17.7,17.09,35.42,34.15,53.11,51.24c22.54,21.78,45.07,43.58,67.6,65.38c30.43,29.44,60.85,58.88,91.28,88.32
		c22.53,21.8,45.06,43.59,67.59,65.38c30.16,29.18,60.32,58.35,90.48,87.53c22.62,21.88,45.24,43.76,67.86,65.65
		c24.59,23.8,49.16,47.62,73.84,71.32c1.34,1.29,3.63,2.25,5.48,2.25c91.07,0.11,182.13,0.1,273.2,0.08c1.27,0,2.54-0.21,4.8-0.4
		c-1.57-1.89-2.38-3.08-3.4-4.07c-7.51-7.32-15.07-14.59-22.6-21.9c-24.74-24-49.48-48-74.22-72
		c-25.1-24.36-50.19-48.72-75.29-73.07c-24.56-23.83-49.13-47.65-73.68-71.48c-25.19-24.44-50.36-48.89-75.55-73.34
		c-16.22-15.74-32.46-31.47-48.68-47.22c-33.87-32.88-67.74-65.77-101.61-98.66c-13.44-13.05-26.84-26.15-40.37-39.11
		c-1.19-1.14-3.21-1.99-4.85-1.99c-91.82-0.09-183.63-0.09-275.45-0.06C850.89,30.78,849.64,31.1,847.32,31.41z M631.02,308.25
		c-0.21,0.43-0.42,0.87-0.64,1.3c83.91,81.17,167.81,162.35,251.9,243.69c47.38-45.98,94.41-91.61,140.31-136.15
		c-6.62-7.28-12.75-14.73-19.6-21.45c-26.92-26.41-54.25-52.4-80.97-79.01c-6.18-6.16-12.13-10.23-21.05-8.68
		c-1.8,0.31-3.73-0.22-5.6-0.22c-85.31-0.01-170.61-0.02-255.92,0.01C636.64,307.76,633.83,308.08,631.02,308.25z M1274.78,456.42
		c-46.21-44.7-93.29-90.24-140.58-135.99c-82.63,79.97-165.01,159.7-248.25,240.27c4.38,0,7.62,0,10.85,0
		c86.93,0,173.86-0.06,260.79,0.11c7.56,0.01,14.35-0.44,19.02-7.33c0.68-1.01,1.83-1.69,2.72-2.56
		c25.85-25.01,51.76-49.95,77.49-75.07C1263.05,469.77,1268.67,463.07,1274.78,456.42z M883.24,563.42
		c-6.73,6.58-13.65,13.39-20.63,20.16c-34.35,33.29-68.72,66.56-103.07,99.86c-22.15,21.48-44.27,42.98-66.4,64.48
		c-15.5,15.06-31.01,30.11-46.48,45.19c-1,0.98-1.72,2.25-3.2,4.25c2.81,0,4.29,0,5.77,0c65.09,0,130.17,0,195.26,0
		c25.61,0,51.22,0.04,76.83-0.08c1.8-0.01,4.05-0.6,5.32-1.76c6.18-5.64,12.1-11.56,18.11-17.38c19.83-19.2,39.75-38.31,59.45-57.64
		c6.47-6.35,12.39-13.27,18.57-19.93c0.62,0.44,0.46,0.1,0.2-0.15c-23.8-23-47.63-45.96-71.42-68.98
		c-21.45-20.75-42.88-41.54-64.26-62.37C885.79,567.6,884.79,565.62,883.24,563.42z M1112.54,776.01
		c47.23-45.84,94.25-91.46,141.31-137.14c-25.79-25.04-51.28-49.78-77.07-74.82c-3.01,4.25-6.88,4.5-11.03,4.5
		c-87.56-0.05-175.13-0.04-262.69-0.04c-1.32,0-2.65,0-5,0C969.95,638.06,1041.14,706.94,1112.54,776.01z M1281.76,463.16
		c-33.16,32.09-65.96,63.82-98.89,95.67c25.74,24.97,51.2,49.68,76.77,74.48c33.12-32.14,65.89-63.94,98.85-95.92
		C1332.89,512.63,1307.44,488.01,1281.76,463.16z"/>
	<path class="st1" d="M610,127.29c22.35,0,44.7,0,67.28,0c0,6.79,0,13.36,0,20.1c-4.39,0.6-8.96,1.35-13.57,1.81
		c-4.71,0.47-7.95,3.2-10.24,6.89c-7.4,11.92-14.43,24.07-21.85,35.98c-3.45,5.54-7.54,10.67-11.13,16.13
		c-0.67,1.01-0.96,3.35-0.33,3.97c6.76,6.65,13.51,13.51,23.35,15.38c9.53,1.82,18.4-1.15,21.76-11.98
		c1.26-4.06,2.29-8.19,3.51-12.59c5.98,4.28,11.81,8.37,17.52,12.61c0.6,0.45,0.98,1.83,0.78,2.62
		c-3.21,12.98-7.93,25.26-18.21,34.42c-7.21,6.42-15.74,10.04-25.42,11.46c-18.86,2.77-33.76-5.11-47.48-16.65
		c-2.18-1.83-4.35-3.67-6.75-5.7c-4.02,2.84-8.14,5.92-12.44,8.75c-11.57,7.63-23.99,12.48-38.06,13.73
		c-9.99,0.89-19.62,0.43-29.05-2.54c-10.93-3.44-19.89-9.87-26.5-19.37c-0.19-0.31-0.38-0.62-0.57-0.93
		c-0.16-0.15-0.32-0.29-0.48-0.44c-0.04,0.29-0.08,0.58-0.13,0.87l0.14,0.08c0,5.98,0,11.97,0,18.22c-1.14,0.1-2.07,0.26-3.01,0.26
		c-18.24,0.01-36.47-0.04-54.71,0.07c-2.29,0.01-3.54-0.79-4.83-2.58c-18.67-25.91-37.52-51.7-56.04-77.72
		c-2.79-3.91-5.55-5.63-10.61-4.05c0,1.07,0,2.39,0,3.72c-0.04,15.74-0.04,31.48-0.14,47.21c-0.06,9.24,3.59,12.98,12.9,12.98
		c4.35,0,8.7,0,13.26,0c0,6.76,0,13.32,0,20.13c-31.05,0-62.18,0-93.46,0c0-6.85,0-13.67,0-20.88c5.24,0,10.44-0.04,15.64,0.01
		c6.22,0.05,8.71-1.79,9.62-7.7c0.47-3.05,0.66-6.17,0.66-9.25c0.04-40.49,0.04-80.98,0-121.47c0-3.33-0.29-6.69-0.71-10
		c-0.65-5.13-3.1-6.99-8.33-6.91c-5.58,0.09-11.17,0.02-16.9,0.02c0-7.2,0-14.15,0-21.4c1.09-0.06,2.17-0.17,3.25-0.17
		c23.61-0.01,47.22-0.33,70.82,0.12c12.68,0.24,25.49,0.85,37.95,3.01c19.55,3.4,34.98,14,42.01,32.98
		c10.4,28.08-1.85,57.95-33.1,68.76c-0.87,0.3-1.67,0.79-2.78,1.33c8.35,11.59,16.36,23.02,24.7,34.21
		c6.33,8.49,12.8,16.91,19.7,24.94c6.1,7.1,14.4,10.44,23.66,11.44c3.15,0.34,6.3,0.74,10.01,1.18c-4.09-7.21-6.43-14.28-6.69-21.94
		c-0.43-13.11,4.06-24.71,10.98-35.53c9.09-14.22,22.55-23.49,36.52-32.17c1.85-1.15,3.71-2.29,5.3-3.26
		c-2.23-7.6-5.1-15.04-6.53-22.74c-3.59-19.27-1.43-37.38,13.82-51.63c8.28-7.74,18.26-12.26,29.53-13.91
		c11.4-1.67,22.61-1.04,32.79,4.65c13.01,7.26,20.49,18.13,20.9,33.67c0.28,10.59-2.59,19.87-8.39,28.48
		c-0.24,0.33-0.49,0.66-0.73,1C609.46,127.08,609.73,127.18,610,127.29z M538.12,150.79c-7.54,4.81-15.45,9.57-23.05,14.78
		c-12.48,8.56-22.61,19.2-28.28,33.58c-9.73,24.69,2.2,48.46,27.83,55.28c12.38,3.29,24.72,2.72,36.96-0.68
		c13.57-3.76,24.69-11.78,35.14-20.82c2.3-1.99,3.7-2.31,6.09,0.09c4.58,4.57,9.36,9.05,14.57,12.87
		c11.73,8.62,24.75,13.04,39.41,9.47c16.54-4.02,25.32-15.85,30.35-31.2c1.58-4.81,1.53-4.88-3.47-7.2
		c-0.72,1.71-1.39,3.44-2.17,5.11c-3.46,7.42-9.12,12.45-17.27,13.31c-5.19,0.55-10.81,0.3-15.79-1.13
		c-12.94-3.72-21.44-13.56-30.13-23.46c13.2-15.75,23.25-33.31,33.02-51c6.18-11.18,14.26-19.08,27.8-19.96c0-1.28,0-2.57,0-4.08
		c-18.53,0-36.82,0-55.32,0c0,1.54,0,2.86,0,4.12c9.18,3.34,12.24,7.71,11.93,17.53c-0.34,10.91-5.34,20.17-11.03,29.04
		c-3.67,5.72-7.94,11.06-12.78,17.72c-12.38-19.39-24.1-37.74-35.94-56.27c4.4-2.45,8.03-4.37,11.55-6.46
		c9.67-5.76,19.27-11.65,26.19-20.86c11.75-15.63,8.53-37.15-7.19-47.97c-8.26-5.69-17.63-6.91-27.24-5.79
		c-16.92,1.96-30.48,9.44-37.78,25.58c-4.54,10.04-4.56,20.77-2.02,31.23C531.71,132.78,535.16,141.64,538.12,150.79z
		 M370.62,247.58c-2.56,0-4.9,0.05-7.24-0.01c-11.93-0.3-17.83-5.78-17.99-17.72c-0.27-20.71-0.07-41.42-0.07-61.87
		c5.19,0,10.59,0.54,15.79-0.21c2.95-0.43,3.89,0.63,5.25,2.5c19.06,26.42,38.19,52.81,57.23,79.24c1.53,2.12,3.18,3.09,5.89,3.06
		c13.49-0.13,26.98-0.05,40.46-0.06c4.55,0,4.61-0.09,3.73-4.81c-0.55-0.09-1.15-0.2-1.75-0.27c-14.01-1.69-25.82-7.48-34.41-18.92
		c-10.56-14.08-20.97-28.26-31.38-42.45c-5.3-7.22-10.46-14.54-15.54-21.62c6.81-2.63,13.73-4.54,19.9-7.82
		c20.95-11.15,27.28-28.27,23.2-49.07c-3.55-18.04-16.37-28.74-33.61-33.02c-10.53-2.62-21.68-3.5-32.58-3.76
		c-23.22-0.54-46.45-0.17-69.68-0.17c-1.33,0-2.66,0-4.09,0c0,1.93,0,3.36,0,5.13c3.32,0,6.41,0,9.51,0
		c8.14,0.01,13.83,4.57,15.15,12.55c0.63,3.8,0.88,7.69,0.88,11.54c0.06,41.23,0.04,82.47,0.03,123.7c0,2.75-0.05,5.5-0.29,8.24
		c-0.85,9.76-6.76,15.36-16.59,15.73c-2.84,0.11-5.68,0.02-8.63,0.02c0,1.81,0,3.09,0,4.41c25.79,0,51.3,0,77.02,0
		C370.75,250.39,370.69,249.19,370.62,247.58z M605.44,132.17c-9.34,6.42-18.3,12.58-27.87,19.16c7.92,12.46,16.1,25.33,24.81,39.04
		c3.59-5.69,6.75-10.06,9.24-14.78c3.41-6.5,6.31-13.25,5.87-20.9c-0.2-3.47-2.05-5.71-5.43-6.2c-2.15-0.31-4.29-0.71-6.62-1.11
		c0-2.5,0-4.98,0-7.46C605.44,137.34,605.44,134.76,605.44,132.17z"/>
	<path class="st2" d="M850.69,193.01c6.44,1.42,12.66,2.8,19.29,4.27c-2.73,8.36-5.52,16.64-8.13,24.98
		c-3.6,11.51-7.08,23.06-10.59,34.6c-0.64,2.12-1.31,3.6-4.21,3.6c-49.96-0.11-99.93-0.08-149.89-0.09c-0.48,0-0.95-0.07-1.59-0.12
		c0-6.93,0-13.75,0-21c5.17,0,10.37-0.04,15.56,0.01c6.29,0.06,8.7-1.68,9.7-7.58c0.47-2.79,0.64-5.67,0.64-8.5
		c0.04-41.12,0.07-82.23-0.03-123.35c-0.01-4.01-0.37-8.18-1.55-11.96c-0.53-1.7-3.4-3.61-5.34-3.76
		c-6.19-0.48-12.44-0.18-18.91-0.18c0-7.43,0-14.25,0-21.31c32.45,0,64.98,0,97.8,0c0,6.7,0,13.48,0,20.63
		c-3.88,0-7.85-0.18-11.8,0.05c-3.55,0.21-7.13,0.64-10.59,1.43c-5.33,1.2-7.32,3.68-7.35,9.06c-0.19,42.86-0.38,85.72-0.4,128.58
		c-0.01,9.83,0.27,10.21,10.04,10.39c13.23,0.25,26.47,0.14,39.69-0.35c10.75-0.4,19.57-5.27,25.08-14.57
		c4.47-7.54,7.9-15.69,11.8-23.56C850.06,193.94,850.29,193.65,850.69,193.01z M703.75,75.72c3.54,0,6.88-0.05,10.22,0.01
		c7.54,0.15,13.29,4.72,14.39,12.09c0.86,5.78,1.33,11.66,1.36,17.5c0.14,27.24,0.13,54.48,0.03,81.72
		c-0.05,14.61-0.22,29.23-0.68,43.83c-0.32,10.46-6.41,16.23-16.84,16.63c-2.81,0.11-5.63,0.02-8.7,0.02
		c0.08,1.88,0.14,3.08,0.21,4.72c1.57,0,2.91,0,4.25,0c12.49,0,24.98,0.01,37.47,0.01c31.71,0,63.43-0.04,95.14,0.05
		c2.81,0.01,3.95-1.11,4.71-3.6c3.37-10.96,6.9-21.88,10.35-32.82c1.29-4.11,2.51-8.24,3.73-12.26c-2.83-1.81-4.04-1.01-5.35,1.65
		c-3.13,6.37-6.23,12.84-10.24,18.65c-6.63,9.59-15.89,15.53-27.82,16.08c-11.83,0.55-23.69,0.74-35.54,0.86
		c-5.35,0.05-10.72-0.25-16.05-0.76c-4.67-0.45-7.44-3.47-8.18-7.98c-0.6-3.67-0.9-7.44-0.91-11.16
		c-0.06-39.36-0.04-78.73-0.03-118.09c0-2.87,0.03-5.75,0.2-8.62c0.64-10.84,4.89-15.81,15.6-17.8c3.4-0.63,6.94-0.56,10.42-0.68
		c4.03-0.14,4.28-0.41,3.5-4.94c-27,0-54.04,0-81.24,0C703.75,72.48,703.75,73.91,703.75,75.72z"/>
	<path class="st3" d="M482.14,241.89l-0.14-0.08c0.2-0.14,0.41-0.29,0.61-0.43c0.19,0.31,0.38,0.62,0.57,0.93
		C482.84,242.16,482.49,242.03,482.14,241.89z"/>
	<path class="st4" d="M1647.85,542.55c-1.44,1.83-2.18,3.05-3.17,4.01c-23.97,23.18-47.97,46.32-71.94,69.5
		c-13.92,13.46-27.76,26.99-41.68,40.45c-33.12,32.04-66.28,64.04-99.4,96.08c-19.48,18.84-38.92,37.72-58.4,56.56
		c-33.49,32.38-67,64.73-100.49,97.12c-19.57,18.93-39.08,37.92-58.65,56.85c-27.73,26.83-55.47,53.66-83.3,80.4
		c-1.17,1.13-3.23,1.89-4.88,1.9c-91.31,0.09-182.63,0.08-273.94,0.05c-1.15,0-2.31-0.5-3.46-0.76c0.64-1.1,1.08-2.41,1.96-3.27
		c37.15-36.14,74.34-72.25,111.54-108.35c24.64-23.92,49.3-47.83,73.95-71.74c33.34-32.36,66.68-64.72,100.03-97.07
		c24.56-23.83,49.12-47.66,73.68-71.48c40.35-39.12,80.7-78.25,121.05-117.36c10.76-10.43,21.49-20.89,32.35-31.21
		c1.19-1.13,3.21-1.99,4.84-1.99c91.81-0.09,183.63-0.08,275.44-0.07C1644.54,542.16,1645.71,542.36,1647.85,542.55z"/>
	<path class="st5" d="M847.32,31.41c2.32-0.32,3.57-0.64,4.81-0.64c91.82-0.02,183.63-0.03,275.45,0.06c1.64,0,3.66,0.85,4.85,1.99
		c13.53,12.96,26.93,26.06,40.37,39.11c33.87,32.89,67.73,65.77,101.61,98.66c16.22,15.75,32.46,31.47,48.68,47.22
		c25.19,24.44,50.36,48.89,75.55,73.34c24.56,23.83,49.13,47.65,73.68,71.48c25.1,24.35,50.19,48.72,75.29,73.07
		c24.74,24,49.47,48.01,74.22,72c7.53,7.3,15.09,14.58,22.6,21.9c1.01,0.99,1.83,2.18,3.4,4.07c-2.26,0.19-3.53,0.4-4.8,0.4
		c-91.07,0.02-182.13,0.03-273.2-0.08c-1.85,0-4.14-0.96-5.48-2.25c-24.68-23.7-49.24-47.53-73.84-71.32
		c-22.62-21.88-45.24-43.77-67.86-65.65c-30.16-29.18-60.32-58.35-90.48-87.53c-22.53-21.79-45.06-43.59-67.59-65.38
		c-30.43-29.44-60.85-58.88-91.28-88.32c-22.53-21.8-45.05-43.6-67.6-65.38C888.01,71.06,870.29,54,852.59,36.91
		C851.03,35.4,849.58,33.77,847.32,31.41z"/>
	<path class="st5" d="M631.02,308.25c2.81-0.17,5.62-0.5,8.43-0.5c85.31-0.03,170.61-0.02,255.92-0.01c1.87,0,3.8,0.54,5.6,0.22
		c8.92-1.55,14.87,2.52,21.05,8.68c26.72,26.61,54.05,52.6,80.97,79.01c6.85,6.72,12.98,14.17,19.6,21.45
		c-45.89,44.53-92.93,90.17-140.31,136.15c-84.09-81.35-167.99-162.52-251.9-243.69C630.59,309.12,630.81,308.69,631.02,308.25z"/>
	<path class="st4" d="M1274.78,456.42c-6.11,6.65-11.73,13.35-17.96,19.43c-25.73,25.13-51.64,50.07-77.49,75.07
		c-0.9,0.87-2.04,1.55-2.72,2.56c-4.67,6.88-11.45,7.34-19.02,7.33c-86.93-0.17-173.86-0.11-260.79-0.11c-3.24,0-6.47,0-10.85,0
		c83.25-80.57,165.62-160.3,248.25-240.27C1181.5,366.18,1228.57,411.72,1274.78,456.42z"/>
	<path class="st4" d="M883.24,563.42c1.55,2.19,2.55,4.18,4.06,5.64c21.38,20.83,42.8,41.62,64.26,62.37
		c23.79,23.01,47.61,45.98,71.42,68.98c0.26,0.25,0.42,0.59-0.2,0.15c-6.17,6.66-12.09,13.58-18.57,19.93
		c-19.7,19.33-39.62,38.44-59.45,57.64c-6.01,5.82-11.93,11.74-18.11,17.38c-1.27,1.16-3.52,1.75-5.32,1.76
		c-25.61,0.11-51.22,0.08-76.83,0.08c-65.09,0-130.17,0-195.26,0c-1.48,0-2.96,0-5.77,0c1.48-1.99,2.2-3.27,3.2-4.25
		c15.47-15.09,30.98-30.14,46.48-45.19c22.13-21.5,44.25-43.01,66.4-64.48c34.34-33.3,68.72-66.56,103.07-99.86
		C869.59,576.82,876.51,570,883.24,563.42z"/>
	<path class="st5" d="M1112.54,776.01c-71.39-69.07-142.59-137.94-214.48-207.5c2.36,0,3.68,0,5,0c87.56,0,175.13-0.01,262.69,0.04
		c4.15,0,8.02-0.25,11.03-4.5c25.79,25.04,51.28,49.78,77.07,74.82C1206.78,684.54,1159.77,730.17,1112.54,776.01z"/>
	<path class="st6" d="M538.12,150.79c-2.96-9.15-6.41-18.01-8.63-27.16c-2.54-10.46-2.52-21.19,2.02-31.23
		c7.3-16.14,20.86-23.62,37.78-25.58c9.61-1.11,18.98,0.11,27.24,5.79c15.73,10.83,18.95,32.34,7.19,47.97
		c-6.93,9.21-16.52,15.1-26.19,20.86c-3.52,2.1-7.15,4.01-11.55,6.46c11.84,18.54,23.56,36.89,35.94,56.27
		c4.84-6.67,9.11-12,12.78-17.72c5.69-8.86,10.69-18.13,11.03-29.04c0.31-9.82-2.75-14.19-11.93-17.53c0-1.27,0-2.58,0-4.12
		c18.5,0,36.78,0,55.32,0c0,1.51,0,2.8,0,4.08c-13.55,0.88-21.62,8.77-27.8,19.96c-9.77,17.69-19.83,35.26-33.02,51
		c8.69,9.9,17.2,19.74,30.13,23.46c4.98,1.43,10.6,1.68,15.79,1.13c8.15-0.86,13.81-5.89,17.27-13.31c0.78-1.68,1.45-3.4,2.17-5.11
		c5,2.32,5.05,2.39,3.47,7.2c-5.03,15.35-13.81,27.18-30.35,31.2c-14.66,3.56-27.68-0.86-39.41-9.47
		c-5.21-3.83-9.99-8.3-14.57-12.87c-2.4-2.4-3.8-2.08-6.09-0.09c-10.45,9.04-21.57,17.06-35.14,20.82
		c-12.24,3.4-24.58,3.97-36.96,0.68c-25.63-6.82-37.56-30.58-27.83-55.28c5.67-14.38,15.8-25.02,28.28-33.58
		C522.66,160.36,530.58,155.6,538.12,150.79z M543.45,159.3c-4,2.7-7.62,4.89-10.97,7.44c-13.36,10.16-22.47,22.63-21.5,40.46
		c0.77,14.23,11.26,31.02,29.19,33.06c17.74,2.03,30.28-7.33,42.92-17.61C568.19,202.58,554.01,182.51,543.45,159.3z M562.06,139.15
		c3.86-2.14,7.34-3.83,10.57-5.9c11.97-7.67,21.19-17.23,22.76-32.37c1.19-11.47-6.22-22.64-16.74-24.42
		c-15.16-2.57-27.92,8.09-27.9,23.6C550.78,113.91,556.9,126.05,562.06,139.15z"/>
	<path class="st7" d="M370.62,247.58c0.07,1.61,0.13,2.82,0.19,4.34c-25.72,0-51.23,0-77.02,0c0-1.31,0-2.6,0-4.41
		c2.95,0,5.79,0.09,8.63-0.02c9.83-0.37,15.75-5.97,16.59-15.73c0.24-2.73,0.29-5.49,0.29-8.24c0.02-41.23,0.03-82.47-0.03-123.7
		c-0.01-3.85-0.26-7.75-0.88-11.54c-1.32-7.98-7-12.54-15.15-12.55c-3.1,0-6.19,0-9.51,0c0-1.77,0-3.2,0-5.13c1.42,0,2.76,0,4.09,0
		c23.23,0,46.47-0.38,69.68,0.17c10.9,0.25,22.05,1.14,32.58,3.76c17.24,4.28,30.06,14.98,33.61,33.02
		c4.09,20.8-2.25,37.93-23.2,49.07c-6.18,3.29-13.09,5.19-19.9,7.82c5.08,7.08,10.24,14.4,15.54,21.62
		c10.41,14.19,20.82,28.37,31.38,42.45c8.59,11.45,20.4,17.23,34.41,18.92c0.6,0.07,1.2,0.19,1.75,0.27
		c0.88,4.72,0.82,4.81-3.73,4.81c-13.49,0.01-26.98-0.07-40.46,0.06c-2.7,0.03-4.36-0.94-5.89-3.06
		c-19.05-26.44-38.17-52.82-57.23-79.24c-1.35-1.88-2.3-2.93-5.25-2.5c-5.21,0.75-10.6,0.21-15.79,0.21
		c0,20.45-0.19,41.16,0.07,61.87c0.15,11.94,6.06,17.41,17.99,17.72C365.72,247.63,368.06,247.58,370.62,247.58z M345.3,159.43
		c7.8-0.46,15.4-0.47,22.87-1.46c8.75-1.16,16.92-4.26,23.79-10.11c9.78-8.32,12.89-18.91,12.84-31.65
		c-0.07-15.59-11.73-31.54-28.23-34.47c-9.16-1.62-18.35-0.91-27.53,0.59c-3.21,0.52-4.03,1.64-4.01,4.75
		c0.13,22.61,0.06,45.23,0.07,67.85C345.1,156.15,345.2,157.36,345.3,159.43z"/>
	<path class="st3" d="M482.01,241.8c0.04-0.29,0.08-0.58,0.13-0.87c0.16,0.15,0.32,0.29,0.48,0.44
		C482.41,241.52,482.21,241.66,482.01,241.8z"/>
	<path class="st5" d="M703.75,75.72c0-1.8,0-3.23,0-4.89c27.2,0,54.23,0,81.24,0c0.78,4.54,0.53,4.81-3.5,4.94
		c-3.48,0.12-7.02,0.05-10.42,0.68c-10.71,1.99-14.96,6.96-15.6,17.8c-0.17,2.87-0.19,5.74-0.2,8.62
		c-0.01,39.36-0.03,78.73,0.03,118.09c0.01,3.72,0.31,7.49,0.91,11.16c0.74,4.52,3.51,7.54,8.18,7.98
		c5.33,0.51,10.7,0.81,16.05,0.76c11.85-0.12,23.7-0.31,35.54-0.86c11.93-0.55,21.2-6.49,27.82-16.08
		c4.01-5.81,7.11-12.29,10.24-18.65c1.31-2.66,2.52-3.47,5.35-1.65c-1.22,4.02-2.43,8.15-3.73,12.26
		c-3.44,10.94-6.97,21.86-10.35,32.82c-0.77,2.5-1.9,3.61-4.71,3.6c-31.71-0.09-63.43-0.06-95.14-0.05
		c-12.49,0-24.98-0.01-37.47-0.01c-1.34,0-2.67,0-4.25,0c-0.07-1.64-0.13-2.83-0.21-4.72c3.07,0,5.89,0.09,8.7-0.02
		c10.42-0.4,16.51-6.17,16.84-16.63c0.45-14.6,0.62-29.22,0.68-43.83c0.1-27.24,0.11-54.48-0.03-81.72
		c-0.03-5.84-0.5-11.72-1.36-17.5c-1.09-7.37-6.85-11.94-14.39-12.09C710.63,75.66,707.29,75.72,703.75,75.72z"/>
	<path class="st8" d="M543.45,159.3c10.56,23.21,24.75,43.28,39.64,63.35c-12.64,10.28-25.18,19.63-42.92,17.61
		c-17.93-2.05-28.42-18.83-29.19-33.06c-0.97-17.83,8.14-30.3,21.5-40.46C535.83,164.19,539.44,162,543.45,159.3z M539.4,171.81
		c-6.04,4.16-11.8,9.36-15.87,16.23c-7.04,11.86-6.57,23.42,1.52,34.63c3.16,4.38,7.31,7.75,12.46,8.94
		c13.33,3.08,24.28-2.22,33.67-10.15C560.5,204.8,549.99,188.37,539.4,171.81z"/>
	<path class="st1" d="M562.06,139.15c-5.16-13.1-11.28-25.24-11.3-39.09c-0.03-15.51,12.73-26.17,27.9-23.6
		c10.52,1.78,17.93,12.95,16.74,24.42c-1.57,15.14-10.79,24.7-22.76,32.37C569.39,135.33,565.91,137.02,562.06,139.15z
		 M566.11,127.64c7.37-4.47,13.59-9.3,17.79-16.41c3.54-5.99,3.78-12.51,2.19-18.79c-1.63-6.46-7.53-8.82-16.16-7.75
		c-4.55,0.56-10.4,7.77-10.94,13.32C557.96,108.6,562.62,117.76,566.11,127.64z"/>
	<path class="st1" d="M345.3,159.43c-0.09-2.07-0.2-3.29-0.2-4.51c-0.01-22.62,0.05-45.23-0.07-67.85c-0.02-3.11,0.8-4.23,4.01-4.75
		c9.18-1.5,18.37-2.21,27.53-0.59c16.5,2.93,28.16,18.87,28.23,34.47c0.06,12.74-3.06,23.33-12.84,31.65
		c-6.87,5.85-15.04,8.95-23.79,10.11C360.7,158.96,353.09,158.97,345.3,159.43z M353.62,150.78c4.45-0.27,8.94-0.26,13.35-0.87
		c13.11-1.8,28.52-10.25,29.52-27.75c0.42-7.25-0.17-13.99-3.94-20.09c-5.28-8.56-13.17-12.85-23.3-12.82
		c-5.37,0.02-10.74,0.05-16.22,0.08c0,21.15,0,41.26,0,61.36c0,0.19,0.01,0.38,0.01,0.57C353.23,151.1,353.42,150.94,353.62,150.78z
		"/>
</g>
</svg>
