<?xml version="1.0" standalone="no"?>
<!DOCTYPE svg PUBLIC "-//W3C//DTD SVG 20010904//EN"
 "http://www.w3.org/TR/2001/REC-SVG-20010904/DTD/svg10.dtd">
<svg version="1.0" xmlns="http://www.w3.org/2000/svg"
 width="1920.000000pt" height="1920.000000pt" viewBox="0 0 1920.000000 1920.000000"
 preserveAspectRatio="xMidYMid meet">
<metadata>
Created by potrace 1.14, written by Peter Selinger 2001-2017
</metadata>
<g transform="translate(0.000000,1920.000000) scale(0.100000,-0.100000)"
fill="#000000" stroke="none">
<path d="M9172 14770 l-724 -5 -24 -30 c-19 -23 -23 -38 -20 -65 4 -30 27 -56
148 -174 247 -240 658 -638 729 -706 37 -36 179 -173 316 -306 136 -133 271
-263 299 -290 29 -27 152 -146 274 -264 122 -118 258 -250 303 -294 79 -75
440 -425 692 -670 77 -74 116 -119 109 -123 -7 -5 -137 -129 -289 -278 -153
-148 -317 -308 -364 -353 -47 -46 -136 -133 -197 -193 -61 -60 -117 -109 -125
-109 -15 0 -73 55 -496 467 -147 144 -306 298 -353 343 -47 45 -126 121 -176
170 -49 49 -103 94 -118 100 -18 7 -480 10 -1442 10 -1564 0 -1464 4 -1482
-63 -5 -18 -5 -43 0 -58 5 -14 101 -115 215 -225 291 -280 313 -302 579 -560
132 -128 268 -260 304 -294 36 -34 166 -160 290 -280 124 -120 259 -251 300
-290 525 -505 830 -807 830 -825 0 -5 -53 -61 -117 -123 -203 -196 -419 -406
-688 -667 -143 -139 -296 -287 -340 -330 -44 -42 -192 -186 -328 -319 -137
-132 -290 -281 -341 -331 -52 -49 -196 -189 -321 -310 -125 -121 -233 -232
-241 -247 -28 -54 3 -113 67 -127 19 -4 660 -6 1425 -5 1153 1 1395 4 1417 15
14 8 106 91 204 186 320 308 349 336 578 558 125 121 228 221 229 222 2 3 123
-112 413 -393 131 -127 266 -258 301 -292 l63 -60 -47 -44 c-26 -23 -73 -68
-104 -98 -293 -285 -597 -580 -664 -645 -124 -120 -612 -593 -671 -650 -29
-27 -177 -171 -330 -320 -153 -148 -348 -337 -433 -420 -359 -348 -422 -413
-422 -433 0 -39 19 -71 52 -88 31 -17 120 -18 1438 -17 1180 0 1410 2 1432 14
24 13 194 170 393 364 98 96 785 761 950 920 28 28 162 156 296 286 134 130
278 270 320 310 43 41 181 175 309 299 128 124 262 254 298 289 37 35 177 171
312 301 135 131 277 269 316 306 40 38 176 170 304 294 128 124 258 249 289
279 31 29 166 161 301 291 135 131 279 270 320 310 158 152 569 551 691 670
l128 125 -1 85 c0 47 -5 94 -10 105 -10 20 -90 100 -464 462 -115 111 -258
250 -319 308 -60 59 -207 201 -325 316 -118 115 -274 266 -346 336 -114 111
-393 382 -689 668 -49 48 -200 195 -335 325 -135 131 -284 276 -331 322 -47
46 -213 207 -369 358 -328 318 -346 336 -676 655 -136 132 -273 265 -304 295
-61 59 -458 444 -648 628 -64 62 -176 171 -248 242 -100 98 -140 130 -165 135
-45 8 -1250 11 -2147 5z m3783 -4535 c58 -55 491 -475 583 -564 l45 -44 -195
-191 c-247 -241 -686 -667 -746 -724 l-45 -43 -41 39 c-23 21 -104 100 -181
174 -77 75 -178 173 -225 218 -47 45 -138 134 -203 198 l-117 116 94 91 c316
303 849 820 870 843 l20 22 40 -39 c23 -21 68 -65 101 -96z"/>
<path d="M5630 14405 c-85 -18 -130 -35 -190 -71 -155 -93 -242 -247 -241
-428 0 -39 3 -82 5 -96 3 -14 7 -41 10 -60 3 -19 18 -78 34 -130 l29 -95 -56
-35 c-152 -92 -270 -193 -337 -286 -130 -181 -168 -386 -100 -538 14 -32 26
-60 26 -63 0 -9 -136 10 -180 24 -80 27 -111 52 -210 169 -77 91 -385 513
-379 518 2 1 44 22 94 46 118 58 189 129 244 243 35 72 42 96 47 174 12 163
-39 305 -149 417 -105 107 -216 147 -477 173 -59 6 -921 12 -935 6 -7 -2 -11
-41 -11 -106 l1 -102 106 -5 c119 -6 135 -13 145 -69 9 -45 11 -1281 3 -1374
-9 -101 -20 -109 -148 -109 -55 0 -102 -3 -102 -7 -1 -3 -2 -50 -3 -103 -2
-93 -1 -98 18 -98 30 -1 845 -1 884 -1 l32 1 0 100 0 100 -85 0 c-47 0 -87 0
-90 0 -19 -1 -64 34 -74 57 -8 20 -11 113 -9 308 l3 280 29 -2 c16 -1 37 -10
47 -19 10 -9 101 -132 203 -273 299 -416 363 -505 384 -531 l19 -24 284 -1
c156 0 292 1 302 3 15 4 17 17 17 101 l0 96 20 -30 c83 -127 280 -214 475
-210 188 5 324 51 498 172 68 46 81 52 95 41 10 -7 42 -34 73 -59 160 -131
320 -178 486 -143 181 38 309 160 378 364 14 40 25 81 25 91 0 22 -179 154
-185 137 -2 -7 -13 -46 -25 -86 -16 -56 -30 -81 -57 -107 -83 -78 -223 -52
-352 67 -28 26 -51 54 -51 62 0 9 29 57 64 108 35 51 90 138 123 193 105 175
163 266 177 281 22 21 57 32 132 39 38 4 70 8 71 9 3 2 5 121 4 168 l-1 37
-317 -1 c-408 0 -369 -2 -352 20 89 109 107 319 39 453 -41 80 -162 173 -258
199 -61 16 -187 18 -252 5z m190 -274 c51 -36 63 -157 24 -232 -34 -67 -165
-183 -184 -163 -8 9 -48 115 -57 149 -11 45 -15 116 -9 150 9 45 68 112 104
118 44 6 95 -3 122 -22z m-2007 -50 c98 -47 150 -140 151 -268 0 -71 -4 -89
-30 -140 -53 -104 -169 -167 -330 -178 l-74 -6 0 310 0 309 118 -2 c99 -2 126
-6 165 -25z m2243 -483 c-1 -56 2 -72 14 -74 84 -14 97 -22 103 -69 6 -46 -10
-113 -45 -184 -42 -87 -99 -174 -109 -164 -25 27 -238 376 -234 383 3 4 42 33
88 64 45 31 100 69 122 85 22 16 45 30 51 30 6 1 10 -26 10 -71z m-640 -350
c9 -17 20 -36 25 -42 5 -6 22 -31 38 -56 16 -25 52 -80 80 -123 28 -43 51 -81
51 -83 0 -3 17 -31 38 -62 71 -104 70 -97 7 -138 -101 -64 -196 -82 -292 -55
-81 23 -163 135 -176 242 -5 48 15 129 48 185 25 45 140 164 157 164 4 0 15
-14 24 -32z"/>
<path d="M6961 14365 c-4 -5 -7 -53 -6 -105 l1 -95 64 -2 c36 -1 82 -2 103 -2
49 -1 83 -36 86 -88 7 -90 4 -1362 -3 -1396 -10 -55 -35 -66 -152 -69 l-99 -3
0 -98 c0 -57 4 -101 10 -105 12 -7 1513 -9 1524 -2 11 7 32 47 36 68 5 24 141
458 160 511 9 24 14 45 13 47 -5 4 -191 44 -193 41 -1 -1 -30 -58 -64 -127
-72 -144 -98 -182 -149 -214 -33 -21 -49 -27 -117 -44 -11 -3 -132 -6 -268 -6
-226 -1 -250 1 -261 16 -20 27 -15 1394 4 1425 20 32 102 49 245 52 l41 1 -2
98 c-1 53 -2 99 -3 102 -2 10 -963 5 -970 -5z"/>
</g>
</svg>
